HIERARCHY
ROOT Hips
{
	OFFSET -3.958830 18.904000 13.208200
	CHANNELS 6 Xposition Yposition Zposition Zrotation Yrotation Xrotation 
	JOINT LHipJoint
	{
		OFFSET 0.000000 0.000000 0.000000
		CHANNELS 3 Zrotation Yrotation Xrotation
		JOINT LeftUpLeg
		{
			OFFSET 1.800000 -1.400000 0.085000
			CHANNELS 3 Zrotation Yrotation Xrotation
			JOINT LeftLeg
			{
				OFFSET 2.215000 -6.000000 0.000000
				CHANNELS 3 Zrotation Yrotation Xrotation
				JOINT LeftFoot
				{
					OFFSET 2.500000 -6.900000 0.000000
					CHANNELS 3 Zrotation Yrotation Xrotation
					JOINT LeftToeBase
					{
						OFFSET 0.200000 -0.500000 1.950000
						CHANNELS 3 Zrotation Yrotation Xrotation
						End Site
						{
							OFFSET 0.000000 0.000000 0.000000
						}
					}
				}
			}
		}
	}
	JOINT RHipJoint
	{
		OFFSET 0.000000 0.000000 0.000000
		CHANNELS 3 Zrotation Yrotation Xrotation
		JOINT RightUpLeg
		{
			OFFSET -1.800000 -1.400000 0.085000
			CHANNELS 3 Zrotation Yrotation Xrotation
			JOINT RightLeg
			{
				OFFSET -2.215000 -6.000000 0.000000
				CHANNELS 3 Zrotation Yrotation Xrotation
				JOINT RightFoot
				{
					OFFSET -2.500000 -6.900000 0.000000
					CHANNELS 3 Zrotation Yrotation Xrotation
					JOINT RightToeBase
					{
						OFFSET -0.200000 -0.500000 1.950000
						CHANNELS 3 Zrotation Yrotation Xrotation
						End Site
						{
							OFFSET 0.000000 0.000000 0.000000
						}
					}
				}
			}
		}
	}
	JOINT LowerBack
	{
		OFFSET 0.000000 0.000000 0.000000
		CHANNELS 3 Zrotation Yrotation Xrotation
		JOINT Spine
		{
			OFFSET -0.087000 1.940000 -0.288900
			CHANNELS 3 Zrotation Yrotation Xrotation
			JOINT Spine1
			{
				OFFSET 0.000000 1.950000 0.060000
				CHANNELS 3 Zrotation Yrotation Xrotation
				JOINT Neck
				{
					OFFSET 0.000000 0.000000 0.000000
					CHANNELS 3 Zrotation Yrotation Xrotation
					JOINT Neck1
					{
						OFFSET 0.000000 1.600000 0.340000
						CHANNELS 3 Zrotation Yrotation Xrotation
						JOINT Head
						{
							OFFSET 0.000000 1.667000 -0.240000
							CHANNELS 3 Zrotation Yrotation Xrotation
							End Site
							{
								OFFSET 0.000000 0.000000 0.000000
							}
						}
					}
				}
				JOINT LeftShoulder
				{
					OFFSET 0.000000 0.000000 0.000000
					CHANNELS 3 Zrotation Yrotation Xrotation
					JOINT LeftArm
					{
						OFFSET 2.700000 1.550000 -0.730000
						CHANNELS 3 Zrotation Yrotation Xrotation
						JOINT LeftForeArm
						{
							OFFSET 5.450000 0.000000 0.000000
							CHANNELS 3 Zrotation Yrotation Xrotation
							JOINT LeftHand
							{
								OFFSET 3.450000 0.000000 0.000000
								CHANNELS 3 Zrotation Yrotation Xrotation
								JOINT LeftHandIndex1
								{
									OFFSET 0.750000 0.000000 0.000000
									CHANNELS 3 Zrotation Yrotation Xrotation
									End Site
									{
										OFFSET 0.000000 0.000000 0.000000
									}
								}
							}
						}
					}
				}
				JOINT RightShoulder
				{
					OFFSET 0.000000 0.000000 0.000000
					CHANNELS 3 Zrotation Yrotation Xrotation
					JOINT RightArm
					{
						OFFSET -2.700000 1.550000 -0.730000
						CHANNELS 3 Zrotation Yrotation Xrotation
						JOINT RightForeArm
						{
							OFFSET -5.450000 0.000000 0.000000
							CHANNELS 3 Zrotation Yrotation Xrotation
							JOINT RightHand
							{
								OFFSET -3.450000 0.000000 0.000000
								CHANNELS 3 Zrotation Yrotation Xrotation
								JOINT RightHandIndex1
								{
									OFFSET -0.750000 0.000000 0.000000
									CHANNELS 3 Zrotation Yrotation Xrotation
									End Site
									{
										OFFSET 0.000000 0.000000 0.000000
									}
								}
							}
						}
					}
				}
			}
		}
	}
}
MOTION
Frames: 4
Frame Time: 0.016667
0.655120 17.828070 -3.149330 -14.707684 0.486045 -2.424666 -14.757754 11.750419 1.308231 9.487325 -0.891486 -9.409566 -2.488189 4.655218 11.449288 -1.089503 3.973067 3.412100 0.509200 0.151830 0.320330 19.130599 -8.434761 6.158682 -7.673018 19.474888 -54.514151 6.416669 -38.878008 106.064412 -4.408153 -19.831187 -0.857536 0.228850 0.379790 0.183100 -5.409081 -0.971964 -8.482503 30.634258 -9.965867 19.790000 -8.201574 -4.455084 16.647407 2.821170 -3.000895 -9.239408 -10.619145 3.261780 52.833665 -5.879780 0.125520 -13.888500 -16.526909 -4.672909 3.348400 -16.215270 12.555920 -8.003064 -135.545313 -75.197773 114.131744 -3.741080 2.525346 0.918060 0.203470 0.011390 0.276940 11.515983 2.982068 5.636699 19.735651 -14.521268 -11.300060 37.185854 84.715671 25.310010 1.548015 -1.743609 -0.461460 0.573150 0.041090 -0.331000 
0.626440 17.761930 -3.130430 -13.984428 -1.658903 -2.722610 -14.777143 11.906184 1.423131 8.919607 -0.805481 -9.106457 -2.660434 4.661233 11.329813 -1.073872 3.949764 3.400995 0.544180 0.203020 0.343660 19.061787 -8.602094 5.918942 -7.123663 18.093004 -50.296030 7.105179 -37.909982 103.504178 -4.288674 -19.309658 -0.777637 0.247610 0.341810 0.194610 -5.295571 -1.151880 -8.418689 28.515732 -9.373312 20.136897 -7.523955 -4.542112 16.714406 2.770442 -2.748432 -9.100719 -10.090288 3.826013 53.570389 -6.299200 1.368230 -14.127450 -16.488949 -4.477294 3.254229 -15.508519 12.646778 -7.902954 -136.986409 -75.139839 115.852757 -3.719757 2.590829 0.915700 0.196450 0.035340 0.278640 11.613723 2.712054 5.305814 19.933700 -14.874029 -12.006614 32.074049 83.349156 20.673078 1.501311 -1.792519 -0.434210 0.540280 0.016720 -0.336880 
0.590680 17.672660 -3.100070 -12.901052 -3.742692 -3.163998 -14.823247 12.104492 1.555808 8.095282 -0.725136 -8.743735 -3.099761 4.789781 11.647268 -1.053199 3.989138 3.365356 0.603570 0.273220 0.392130 18.967772 -8.739218 5.644776 -6.571348 16.638631 -45.847432 7.279726 -36.970749 101.696350 -4.196636 -18.854209 -0.723441 0.283410 0.297520 0.215030 -5.105606 -1.485600 -8.343325 25.693155 -8.688438 20.392814 -6.404666 -4.699316 16.850446 2.555169 -3.010423 -8.756255 -10.736855 4.735282 53.599122 -6.551730 2.213100 -15.003580 -16.315343 -3.635091 2.874661 -16.040952 12.207172 -8.124906 -135.330760 -75.781991 114.592317 -3.695188 2.587653 0.915870 0.177950 0.070090 0.283080 11.872046 2.226366 4.824338 19.384304 -14.992104 -12.299101 29.305678 82.196819 18.075721 1.481320 -1.844519 -0.401660 0.511620 -0.017340 -0.340760 
0.547980 17.548000 -3.064280 -11.430081 -6.104230 -2.466524 -14.859079 12.199415 1.657955 6.659531 -0.872840 -10.084727 -3.701019 4.985747 13.006932 -1.080764 4.016107 3.351259 0.653580 0.354830 0.380540 18.915763 -8.878594 5.375984 -6.171698 15.414329 -42.594028 6.534165 -35.219103 100.466195 -4.069800 -18.395614 -0.647017 0.353670 0.345190 0.233880 -5.001430 -1.657496 -8.178481 22.797767 -7.769228 18.312014 -5.724805 -4.760586 17.326812 1.981307 -3.640081 -8.058952 -11.871326 6.057068 52.246489 -5.978370 2.644610 -14.849180 -15.922223 -2.152219 2.504188 -16.797905 12.236696 -8.058534 -133.269564 -76.188722 112.650075 -3.735894 2.580883 0.876150 0.219140 0.057780 0.329080 12.540759 1.375049 3.923359 18.407868 -13.556631 -11.837960 28.024360 80.933188 16.868885 1.431225 -1.908251 -0.396750 0.536190 -0.035870 -0.313200 
